<?xml version="1.0" standalone="no"?>
<svg viewBox="0 0 200 200" xmlns="http://www.w3.org/2000/svg">
  <path fill="#1877D2" d="M37.4,-64C49.3,-58,60.3,-49.6,63.4,-38.5C66.4,-27.4,61.6,-13.7,62.9,0.8C64.3,15.2,71.7,30.5,70.3,44.5C68.9,58.4,58.7,71.1,45.5,70C32.3,69,16.1,54.1,2.7,49.4C-10.6,44.6,-21.3,50,-35,51.4C-48.8,52.8,-65.7,50.2,-71.1,41C-76.6,31.8,-70.6,15.9,-64.7,3.4C-58.9,-9.2,-53.3,-18.3,-47.1,-26.2C-40.9,-34.2,-34.2,-40.9,-26.2,-49.2C-18.3,-57.5,-9.2,-67.4,1.8,-70.6C12.8,-73.7,25.6,-70.1,37.4,-64Z" transform="translate(100 100)" />
</svg>
